<?xml version="1.0" standalone="no"?>
<!DOCTYPE svg PUBLIC "-//W3C//DTD SVG 20010904//EN"
 "http://www.w3.org/TR/2001/REC-SVG-20010904/DTD/svg10.dtd">
<svg version="1.0" xmlns="http://www.w3.org/2000/svg"
 width="70.000000pt" height="70.000000pt" viewBox="0 0 70.000000 70.000000"
 preserveAspectRatio="xMidYMid meet">
<metadata>
Created by potrace 1.11, written by Peter Selinger 2001-2013
</metadata>
<g transform="translate(0.000000,70.000000) scale(0.100000,-0.100000)"
fill="#000000" stroke="none">
<path d="M145 684 c-9 -20 -11 -77 -16 -430 -2 -168 0 -226 9 -237 10 -12 34
-15 108 -14 117 3 121 6 119 114 -2 81 3 93 42 93 40 0 115 40 154 81 111 117
77 289 -73 369 -61 33 -67 34 -199 38 -125 4 -137 3 -144 -14z m292 -237 c-2
-24 -41 -67 -62 -67 -8 0 -16 8 -16 18 -3 48 -1 90 5 100 10 17 75 -28 73 -51z"/>
</g>
</svg>
